<?xml version="1.0" encoding="utf-8"?>
<!-- Generator: Adobe Illustrator 27.2.0, SVG Export Plug-In . SVG Version: 6.00 Build 0)  -->
<svg version="1.1" id="Camada_1" xmlns="http://www.w3.org/2000/svg" xmlns:xlink="http://www.w3.org/1999/xlink" x="0px" y="0px"
	 viewBox="0 0 1075.11 219.31" style="enable-background:new 0 0 1075.11 219.31;" xml:space="preserve">
<style type="text/css">
	.st0{fill:#FFFFFF;}
	.st1{fill:#3487FF;}
</style>
<g>
	<g>
		<path class="st0" d="M135,125.32V0h31.33v125.32H135z M260.33,187.98v-31.33h-93.99v-31.33h93.99V0h31.33v187.98H260.33z
			 M166.33,219.31v-31.33h93.99v31.33H166.33z"/>
		<path class="st0" d="M322.99,125.32V0h31.33v125.32H322.99z M354.32,156.65v-31.33h93.99V0h31.33v156.65H354.32z"/>
		<path class="st0" d="M510.97,156.65V0h125.32v31.33H542.3v125.32H510.97z M636.29,62.66V31.33h31.33v31.33H636.29z"/>
		<path class="st0" d="M698.95,125.32V31.33h31.33v31.33h94V31.33h31.33v62.66H730.28v31.33H698.95z M730.28,31.33V0h94v31.33
			H730.28z M730.28,156.65v-31.33h94v31.33H730.28z"/>
	</g>
	<g>
		<g>
			
				<rect x="790.58" y="96.62" transform="matrix(0.3957 -0.9184 0.9184 0.3957 445.0094 895.5394)" class="st1" width="224.82" height="26"/>
		</g>
		<polygon class="st1" points="1065.83,113.53 975.17,22.87 959.44,38.59 1034.4,113.55 967.23,180.72 982.95,196.45 
			1057.89,121.51 1057.87,121.49 		"/>
		<polygon class="st1" points="9.28,105.78 99.94,196.45 115.66,180.72 40.7,105.76 107.88,38.59 92.15,22.87 17.21,97.81 
			17.23,97.83 		"/>
	</g>
</g>
</svg>
